<?xml version="1.0" encoding="UTF-8"?>
<svg width="756px" height="88px" viewBox="0 0 756 88" version="1.1" xmlns="http://www.w3.org/2000/svg" xmlns:xlink="http://www.w3.org/1999/xlink">
    <!-- Generator: Sketch 41 (35326) - http://www.bohemiancoding.com/sketch -->
    <title>beat-heart</title>
    <desc>Created with Sketch.</desc>
    <defs>
        <path d="M1751.24512,262.872727 C1740.26711,264.465455 1736.2293,260.781818 1734.49425,254.825455 C1726.3357,261.6 1718.92348,267.752727 1711.10301,274.247273 C1710.11428,266.756364 1701.54749,262.494545 1686.44875,262.690909 C1685.24952,275.567273 1683.94824,289.56 1682.64695,303.552727 C1681.8177,303.538182 1680.98845,303.527273 1680.1592,303.516364 C1677.70972,282.469091 1675.26662,261.425455 1672.82352,240.381818 C1672.10909,240.327273 1671.38828,240.272727 1670.67385,240.218182 C1667.20375,254.338182 1663.74003,268.454545 1660.26994,282.574545 C1659.45983,282.629091 1658.64333,282.687273 1657.83322,282.745455 C1656.4809,278.712727 1654.56725,274.709091 1653.89747,270.64 C1652.88323,264.483636 1647.4931,262.847273 1636.37476,264.96 C1633.77219,278.501818 1631.09945,292.425455 1628.42671,306.349091 C1627.08716,306.349091 1625.7476,306.345455 1624.40804,306.345455 L1624.40804,238.927273 C1623.08124,238.912727 1621.75444,238.894545 1620.42763,238.88 C1617.17442,252.88 1613.92121,266.88 1610.66799,280.88 C1609.92167,280.927273 1609.17534,280.978182 1608.42901,281.025455 C1606.87895,275.72 1605.33527,270.410909 1603.61298,264.494545 L1504.66424,264.494545 C1502.80162,261.636364 1501.24518,259.250909 1499.37617,256.385455 C1491.49191,262.901818 1484.07331,269.036364 1476.33576,275.436364 C1475.85735,267.698182 1465.47896,264.610909 1451.62409,263.752727 C1450.39935,276.876364 1449.09807,290.854545 1447.79678,304.836364 C1446.96753,304.829091 1446.13828,304.818182 1445.31541,304.807273 C1442.84041,283.687273 1440.3718,262.567273 1437.90318,241.443636 C1432.33445,255.545455 1428.88987,269.709091 1425.45166,283.872727 C1424.64155,283.934545 1423.83144,283.996364 1423.02132,284.058182 C1421.65625,280.04 1419.72346,276.050909 1419.06006,271.992727 C1418.05858,265.872727 1412.7131,264.181818 1401.53097,266.232727 C1398.9284,279.792727 1396.24928,293.730909 1393.57654,307.669091 C1392.25612,307.669091 1390.94208,307.669091 1389.62166,307.672727 L1389.62166,240.218182 C1388.27572,240.2 1386.92978,240.181818 1385.58384,240.163636 C1382.33063,254.16 1379.07742,268.156364 1375.8242,282.152727 C1375.08425,282.214545 1374.33793,282.272727 1373.59798,282.334545 C1372.04154,277.04 1381.2291,266.927273 1362.28318,267.50909 C1329.4002,267.50909 1303.0734,265.836364 1269.897,265.836364 C1267.9961,262.978182 1266.40776,260.6 1264.99166,258.476364 C1260.52008,261.272727 1255.46166,263.84 1251.73641,266.927273 C1248.04305,269.989091 1245.69563,273.574545 1241.64506,278.207273 C1240.86047,269.105455 1230.74999,265.872727 1216.77392,265.076364 C1215.54918,278.181818 1214.2479,292.152727 1212.94661,306.123636 C1212.11736,306.116364 1211.28811,306.109091 1210.45886,306.101818 C1207.99024,284.981818 1205.52163,263.858182 1203.04663,242.738182 C1197.49066,256.836364 1194.04608,271.003636 1190.60787,285.170909 C1189.8169,285.236364 1189.0323,285.301818 1188.2477,285.367273 C1186.86349,281.363636 1184.90518,277.392727 1184.22902,273.349091 C1183.21479,267.272727 1177.97775,265.48 1166.6808,267.534545 C1164.07823,281.087273 1161.40549,295.036364 1158.72638,308.989091 C1157.43147,308.992727 1156.13018,308.996364 1154.83528,309 L1154.83528,241.505455 C1153.48296,241.483636 1152.13064,241.465455 1150.78471,241.443636 C1147.4677,255.530909 1144.15708,269.618182 1140.84008,283.705455 C1137.02552,278.250909 1135.47546,272.778182 1133.98281,267.527273 C1114.80161,267.527273 1096.55171,267.527273 1078.25717,267.509091 C1078.20614,267.487273 996.589363,262.872726 996.589363,262.872726 C998.534913,262.167272 1082.1993,265.563636 1084.16398,265.545455 C1101.02329,265.381818 1117.88897,265.450909 1135.27772,265.450909 C1136.84054,267.749091 1138.28854,269.883636 1140.55941,273.218182 C1144.57808,255.88 1148.30971,239.796364 1152.03496,223.709091 C1153.27246,223.738182 1154.51633,223.767273 1155.75383,223.796364 L1155.75383,286.581818 C1157.04236,286.618182 1158.33727,286.650909 1159.63217,286.687273 C1161.20137,279.876364 1162.77695,273.065455 1164.44183,265.869091 L1183.79526,265.869091 C1185.16034,269.010909 1186.5892,272.283636 1188.01806,275.56 C1193.7973,259.829091 1197.66926,243.989091 1201.5476,228.149091 C1202.41513,228.141818 1203.28265,228.130909 1204.15018,228.12 C1206.24882,245.818182 1208.35384,263.512727 1210.45886,281.207273 C1212.89558,273.345455 1213.82051,265.465455 1215.01336,255.392727 C1220.52469,261.894545 1224.38389,267.018182 1236.39527,266.050909 C1237.64552,265.949091 1239.70589,269.112727 1242.22554,271.581818 C1250.14169,265.378182 1257.74528,259.421818 1265.27871,253.52 C1267.17961,264.16 1279.40148,264.989091 1295.05519,264.429091 C1315.69715,263.694545 1340.78334,266.253773 1361.50185,266.111955 C1370.16433,266.050136 1372.71864,266.927273 1375.70938,270.654545 C1379.44101,254.556364 1383.17902,238.458182 1386.91065,222.36 C1388.19917,222.396364 1389.4877,222.429091 1390.78261,222.461818 L1390.78261,285.229091 C1392.0201,285.254545 1393.2576,285.283636 1394.4951,285.312727 C1396.07705,278.498182 1397.66539,271.683636 1399.33027,264.523636 L1418.72198,264.523636 C1420.08067,267.727273 1421.4585,270.974545 1422.83634,274.218182 C1428.67298,258.48 1432.53219,242.672727 1436.39777,226.869091 C1437.27168,226.865455 1438.14558,226.865455 1439.02586,226.861818 C1441.1245,244.570909 1443.22314,262.276364 1445.32179,279.985455 C1447.75851,272.08 1448.6962,264.170909 1449.86353,254.338182 C1455.4833,260.247273 1458.38567,265.643636 1470.35878,264.56 C1471.90246,264.421818 1474.41573,267.752727 1477.27345,270.134545 C1484.99824,264.050909 1492.59545,258.065455 1500.72211,251.665455 C1499.7908,265.556364 1517.50487,262.952727 1532.38035,262.956364 C1552.70975,262.956364 1573.05191,263.014545 1593.37493,262.738182 C1601.83328,262.625455 1608.95208,262.803636 1610.54041,269.16 C1614.29756,253.105455 1618.06108,237.054545 1621.8246,221 C1623.03658,221.043636 1624.24857,221.087273 1625.46693,221.130909 L1625.46693,283.669091 C1626.72356,283.723636 1627.98019,283.778182 1629.24321,283.832727 C1630.88257,277.050909 1632.52194,270.265455 1634.23785,263.181818 L1653.57852,263.181818 C1654.89895,266.363636 1656.18747,269.487273 1657.48238,272.607273 C1658.19681,272.672727 1658.91124,272.738182 1659.62568,272.803636 C1663.48488,257.123636 1667.34409,241.443636 1671.20329,225.763636 C1672.06444,225.730909 1672.93196,225.701818 1673.7931,225.669091 C1675.94278,243.367273 1678.08607,261.061818 1680.23574,278.76 C1682.60868,270.814545 1683.5655,262.876364 1684.52233,254.934545 C1690.16124,259.225455 1693.57392,264.203636 1705.3748,263.287273 C1706.94399,263.163636 1709.34244,266.523636 1712.01518,268.836364 C1719.6698,262.872727 1727.1522,257.043636 1735.05559,250.88 C1740.484,253.676364 1734.93439,263.447273 1751.24512,261.563636 L1751.24512,262.872727 L1046.6709,221.462891" id="path-1"></path>
    </defs>
    <g id="Page-1" stroke="none" stroke-width="1" fill="none" fill-rule="evenodd">
        <g id="portfolio" transform="translate(-996.000000, -2312.000000)">
            <g id="skills" transform="translate(0.000000, 2091.000000)">
                <mask id="mask-2" fill="white">
                    <use xlink:href="#path-1"></use>
                </mask>
                <use id="beat-heart" fill="#FFFFFF" xlink:href="#path-1"></use>
            </g>
        </g>
    </g>
</svg>