<?xml version="1.0" encoding="UTF-8"?>
<svg width="184px" height="138px" viewBox="0 0 184 138" version="1.1" xmlns="http://www.w3.org/2000/svg" xmlns:xlink="http://www.w3.org/1999/xlink">
    <!-- Generator: Sketch 41 (35326) - http://www.bohemiancoding.com/sketch -->
    <title>landing</title>
    <desc>Created with Sketch.</desc>
    <defs></defs>
    <g id="Page-1" stroke="none" stroke-width="1" fill="none" fill-rule="evenodd">
        <g id="portfolio" transform="translate(-516.000000, -1400.000000)">
            <g id="what-design" transform="translate(0.000000, 1079.000000)">
                <g id="landing-pages-+-landing" transform="translate(497.000000, 321.000000)">
                    <g id="landing" transform="translate(19.000000, 0.000000)">
                        <path d="M183.46548,11.23228 L183.46548,126.76772 C182.6154,133.40644 178.871,137.14992 172.23228,138 L11.76772,138 C5.129,137.14992 1.3846,133.40644 0.53452,126.76772 L0.53452,11.23228 C1.3846,4.59356 5.129,0.85008 11.76772,0 L172.23228,0 C178.871,0.85008 182.6154,4.59356 183.46548,11.23228" id="Fill-1" fill="#FFFFFF"></path>
                        <path d="M92.40388,6.41884 C116.17392,6.41884 139.94396,6.394 163.714,6.4308 C174.0226,6.44644 177.02364,9.43276 177.03376,19.72756 C177.06688,52.578 177.0678,85.42936 177.03376,118.2798 C177.02272,128.53964 173.98948,131.56276 163.691,131.5692 C115.88412,131.59588 68.07632,131.59588 20.26944,131.5692 C9.97096,131.56276 6.97544,128.55712 6.96532,118.25588 C6.93404,85.40544 6.93404,52.555 6.96532,19.70364 C6.97544,9.40884 9.95808,6.44552 20.29244,6.42988 C44.32928,6.39492 68.36612,6.41884 92.40388,6.41884" id="Fill-2" fill="#FEFEFE"></path>
                        <path d="M168.68936,36.1974 L15.71912,36.1974 C15.71176,35.73372 15.70532,35.26912 15.69888,34.80544 L168.6774,34.80544 C168.68108,35.26912 168.68476,35.73372 168.68936,36.1974" id="Fill-3" fill="#2196F3"></path>
                        <path d="M28.28724,20.309 C28.24584,23.138 26.80972,25.02676 24.05248,25.19512 C21.2842,25.3644 19.51412,23.6624 19.37704,20.83708 C19.2418,18.05868 20.60432,16.17268 23.53176,16.01536 C26.43068,15.85896 27.90176,17.54808 28.28724,20.309" id="Fill-4" fill="#2196F3"></path>
                        <path d="M42.73124,20.29888 C42.69352,23.12696 41.26384,25.01848 38.50568,25.19512 C35.73188,25.37176 33.96548,23.667 33.82012,20.84628 C33.67844,18.07156 35.03728,16.18372 37.96656,16.01812 C40.871,15.85436 42.3384,17.54072 42.73124,20.29888" id="Fill-5" fill="#2196F3"></path>
                        <path d="M52.5688,25.3092 C49.85112,24.7986 48.14176,23.29072 48.24296,20.44332 C48.34232,17.64744 49.90724,15.90956 52.808,16.008 C55.68484,16.10644 57.16604,17.88848 57.11544,20.7092 C57.063,23.5842 55.27728,24.95868 52.5688,25.3092" id="Fill-6" fill="#2196F3"></path>
                        <path d="M103.96,120.52 C103.96,123.06012 101.90012,125.12 99.36,125.12 L21.16,125.12 C18.61988,125.12 16.56,123.06012 16.56,120.52 L16.56,98.44 C16.56,95.89988 18.61988,93.84 21.16,93.84 L99.36,93.84 C101.90012,93.84 103.96,95.89988 103.96,98.44 L103.96,120.52" id="Fill-7" fill="#3C9FEE"></path>
                        <path d="M104.42,120.06 C104.42,122.59 102.35,124.66 99.82,124.66 L21.62,124.66 C19.09,124.66 17.02,122.59 17.02,120.06 L17.02,97.98 C17.02,95.45 19.09,93.38 21.62,93.38 L99.82,93.38 C102.35,93.38 104.42,95.45 104.42,97.98 L104.42,120.06 L104.42,120.06 Z" id="Stroke-8" stroke="#2196F3"></path>
                        <path d="M168.36,120.52 C168.36,123.06012 166.30012,125.12 163.76,125.12 L115.92,125.12 C113.37988,125.12 111.32,123.06012 111.32,120.52 L111.32,98.44 C111.32,95.89988 113.37988,93.84 115.92,93.84 L163.76,93.84 C166.30012,93.84 168.36,95.89988 168.36,98.44 L168.36,120.52" id="Fill-9" fill="#3C9FEE"></path>
                        <path d="M168.82,120.06 C168.82,122.59 166.75,124.66 164.22,124.66 L116.38,124.66 C113.85,124.66 111.78,122.59 111.78,120.06 L111.78,97.98 C111.78,95.45 113.85,93.38 116.38,93.38 L164.22,93.38 C166.75,93.38 168.82,95.45 168.82,97.98 L168.82,120.06 L168.82,120.06 Z" id="Stroke-10" stroke="#2196F3"></path>
                        <path d="M169.28,77.28 C169.28,79.82012 167.22012,81.88 164.68,81.88 L20.24,81.88 C17.69988,81.88 15.64,79.82012 15.64,77.28 L15.64,55.2 C15.64,52.65988 17.69988,50.6 20.24,50.6 L164.68,50.6 C167.22012,50.6 169.28,52.65988 169.28,55.2 L169.28,77.28" id="Fill-11" fill="#3C9FEE"></path>
                        <path d="M169.74,76.82 C169.74,79.35 167.67,81.42 165.14,81.42 L20.7,81.42 C18.17,81.42 16.1,79.35 16.1,76.82 L16.1,54.74 C16.1,52.21 18.17,50.14 20.7,50.14 L165.14,50.14 C167.67,50.14 169.74,52.21 169.74,54.74 L169.74,76.82 L169.74,76.82 Z" id="Stroke-12" stroke="#2196F3"></path>
                    </g>
                </g>
            </g>
        </g>
    </g>
</svg>