<?xml version="1.0" encoding="iso-8859-1"?>
<!-- Generator: Adobe Illustrator 17.0.0, SVG Export Plug-In . SVG Version: 6.00 Build 0)  -->
<!DOCTYPE svg PUBLIC "-//W3C//DTD SVG 1.1//EN" "http://www.w3.org/Graphics/SVG/1.1/DTD/svg11.dtd">
<svg version="1.1" id="Calque_1" xmlns="http://www.w3.org/2000/svg" xmlns:xlink="http://www.w3.org/1999/xlink" x="0px" y="0px"
	 width="1417.32px" height="1417.32px" viewBox="0 0 1417.32 1417.32" style="enable-background:new 0 0 1417.32 1417.32;"
	 xml:space="preserve">
<g>
	<g>
		<path style="fill:#FEFEFE;" d="M709.503,752.32c-13.98,0-27.96-0.047-41.939,0.052c-1.998,0.014-2.639-0.225-2.63-2.483
			c0.105-26.628,0.117-53.257-0.014-79.885c-0.012-2.524,0.704-2.745,2.888-2.738c27.793,0.081,55.587,0.08,83.38,0.001
			c2.17-0.006,2.907,0.194,2.895,2.732c-0.133,26.628-0.119,53.257-0.015,79.885c0.009,2.247-0.616,2.503-2.625,2.489
			C737.463,752.272,723.482,752.32,709.503,752.32z"/>
	</g>
</g>
</svg>
