<?xml version="1.0" encoding="UTF-8"?>
<svg width="96px" height="138px" viewBox="0 0 96 138" version="1.1" xmlns="http://www.w3.org/2000/svg" xmlns:xlink="http://www.w3.org/1999/xlink">
    <!-- Generator: Sketch 41 (35326) - http://www.bohemiancoding.com/sketch -->
    <title>mobile</title>
    <desc>Created with Sketch.</desc>
    <defs></defs>
    <g id="Page-1" stroke="none" stroke-width="1" fill="none" fill-rule="evenodd">
        <g id="portfolio" transform="translate(-1261.000000, -1400.000000)" fill="#FFFFFF">
            <g id="what-design" transform="translate(0.000000, 1079.000000)">
                <g id="Mobile" transform="translate(1179.000000, 321.000000)">
                    <g id="mobile" transform="translate(82.000000, 0.000000)">
                        <path d="M62.0564405,49.335237 C60.7415737,49.3368111 59.4249867,49.373645 58.1118401,49.3289406 C55.6517112,49.2451987 54.1228603,47.9257904 54.0561193,45.7201655 C53.9818097,43.2629998 53.9800896,40.8011119 54.0581834,38.3445758 C54.1249245,36.2453599 55.6912742,34.8340243 57.9993436,34.7786161 C60.6841214,34.7140781 63.3744035,34.7084114 66.0591813,34.7817643 C68.3920206,34.8453578 69.87546,36.2208039 69.9428891,38.3773171 C70.0196069,40.8341679 70.0189188,43.2960559 69.941513,45.7529067 C69.875116,47.8426781 68.2970694,49.2313466 66.0006969,49.3239035 C64.6882383,49.3767932 63.3713073,49.3336629 62.0564405,49.335237" id="Fill-5"></path>
                        <path d="M62.06057,74.00674 C60.6885509,74.0064253 59.3134354,74.0586783 57.9452007,73.9944637 C55.5999012,73.8846064 54.1191664,72.5455429 54.0555196,70.3984456 C53.9825838,67.9416073 53.9798315,65.4800472 54.0572398,63.0238384 C54.1236389,60.9226987 55.6869426,59.510292 57.994054,59.4542616 C60.6792619,59.3891027 63.3696304,59.384381 66.0541503,59.4570946 C68.3891287,59.5200501 69.87468,60.8931096 69.9424552,63.0480763 C70.0202076,65.5045999 70.0184874,67.9661599 69.9414231,70.4226835 C69.8760561,72.5150095 68.3024314,73.9031783 66.004953,73.9972967 C64.6927963,74.0511237 63.375479,74.0070548 62.06057,74.00674" id="Fill-6"></path>
                        <path d="M35.1225771,84.0952673 C36.3799709,84.0943229 37.6390848,84.0600103 38.8951025,84.1015632 C41.3431501,84.1827804 42.8726638,85.5033459 42.9424999,87.7176148 C43.0199044,90.174276 43.0192164,92.6359739 42.9400917,95.0926351 C42.8730078,97.1803564 41.2925791,98.5969344 38.9917721,98.6510792 C36.3066946,98.7140382 33.6164568,98.7253708 30.9320673,98.6463573 C28.5903219,98.5774171 27.1175715,97.1970405 27.0549599,95.045101 C26.9837477,92.588125 26.9785874,90.1267419 27.0580561,87.6700808 C27.125828,85.5748044 28.6986883,84.1969461 31.0067197,84.1062851 C32.376264,84.0524552 33.7502806,84.0965265 35.1225771,84.0952673" id="Fill-7"></path>
                        <path d="M69.982473,91.4069148 C69.9814394,92.6093424 70.0262283,93.8130281 69.9717926,95.0129395 C69.8729126,97.184732 68.3239072,98.6073269 65.9283925,98.6576508 C63.2961858,98.7126926 60.6598449,98.7218138 58.0283273,98.6545055 C55.5918135,98.5919151 54.1055126,97.210523 54.0476316,94.9792854 C53.9852717,92.5763173 53.9821709,90.1698894 54.0500433,87.7672359 C54.1117141,85.5787736 55.6751897,84.1731631 58.0879309,84.1225246 C60.7201375,84.0671683 63.3564785,84.0621359 65.9883406,84.1253553 C68.4145185,84.1838569 69.8746352,85.5636764 69.9735152,87.80089 C70.0269173,89.0011159 69.9831621,90.2048017 69.982473,91.4069148" id="Fill-8"></path>
                        <path d="M27.0188119,66.7650693 C27.0188119,65.5603571 26.9767781,64.3537581 27.0281145,63.1509326 C27.1232072,60.914149 28.5957674,59.5141545 31.0251126,59.4531485 C33.6632484,59.3867965 36.3065524,59.3886833 38.9450329,59.4522051 C41.3516385,59.509752 42.8924173,60.9320735 42.950989,63.1386685 C43.0150733,65.5471496 43.0185186,67.9594042 42.9482327,70.3675708 C42.8869047,72.4741662 41.3309661,73.9134687 39.0328903,73.972588 C36.3372164,74.0420845 33.6360299,74.047116 30.941045,73.9716446 C28.5830194,73.9056071 27.1362997,72.5320276 27.0298371,70.3795204 C26.9698873,69.1770094 27.0188119,67.970096 27.0188119,66.7650693" id="Fill-9"></path>
                        <path d="M34.9932879,49.3366236 C33.7325145,49.3381979 32.4707086,49.3674801 31.2109677,49.3319007 C28.6828813,49.2601121 27.1102704,47.8942402 27.0496927,45.6196761 C26.9853289,43.2094065 26.9794777,40.7950437 27.0558882,38.3854038 C27.1236939,36.251898 28.6439877,34.8466683 30.9676244,34.783381 C33.6588576,34.710333 36.3562862,34.7097032 39.0475194,34.7843256 C41.3491278,34.8476128 42.8825009,36.279291 42.9468647,38.3998874 C43.0198333,40.8098422 43.013982,43.2238902 42.9516834,45.6344747 C42.8948918,47.8356758 41.3436208,49.2368123 38.9477039,49.326548 C37.6315156,49.3756665 36.3115413,49.3353642 34.9932879,49.3366236" id="Fill-10"></path>
                        <path d="M0.0266060719,69.0087164 C0.0262709004,50.7814525 0.0668266452,32.5535706 0.000127527818,14.3263067 C-0.0183069016,9.25320348 1.96088048,5.15071716 6.54367963,2.40573478 C8.43270589,1.27412098 10.780917,0.572038354 13.0208678,0.221615073 C15.4676193,-0.160945794 18.0310105,0.0680344986 20.5434557,0.0674164681 C40.6490499,0.0612361633 60.7546441,0.0745238186 80.8599032,0.0572189652 C87.4718303,0.0516566909 92.1571919,2.86493143 94.8211345,8.34500769 C95.6128095,9.97382701 95.9439589,11.9243312 95.9469754,13.7283622 C96.0096525,50.5951163 96.0116635,87.4621794 95.979487,124.328934 C95.9724484,132.179775 89.6886542,137.955888 81.1618927,137.971029 C59.1019138,138.010892 37.0415997,138.007493 14.9812856,137.97381 C6.23599224,137.960523 0.0493977301,132.225509 0.0359908723,124.154958 C0.00616061381,105.772877 0.0266060719,87.3907969 0.0266060719,69.0087164 L0.0266060719,69.0087164 Z M80.4667471,66.5644058 C80.4667471,53.4318762 80.4680878,40.2993465 80.4657416,27.1668169 C80.4654064,24.7654595 79.9505831,24.2731982 77.3362458,24.2722712 C57.6737482,24.2660909 38.0112506,24.2670179 18.3487531,24.2722712 C16.1765069,24.2728892 15.5591211,24.8383871 15.558786,26.8327714 C15.5534232,53.2010418 15.553088,79.5693122 15.5584508,105.937274 C15.5591211,108.356245 16.0920437,108.834909 18.6845948,108.835218 C38.1795067,108.837073 57.6744186,108.836764 77.1693304,108.835837 C79.9944905,108.835527 80.4660768,108.402597 80.4664119,105.807796 C80.4677526,92.7265631 80.4670823,79.645639 80.4667471,66.5644058 L80.4667471,66.5644058 Z M47.9571281,14.8945857 C52.3136865,14.8945857 56.6702449,14.9038561 61.0264682,14.8902595 C63.0435299,14.8840792 64.3543855,13.805925 64.3718144,12.1950286 C64.3895785,10.5782608 63.1286635,9.45746255 61.0707108,9.45066421 C52.3579291,9.42316186 43.6448123,9.42254383 34.9320306,9.45159126 C32.8844682,9.45869861 31.6145036,10.6150336 31.6644442,12.2324194 C31.7140496,13.8538224 33.0081465,14.8856242 35.0553737,14.8911865 C39.3559585,14.9020021 43.6565433,14.8942767 47.9571281,14.8945857 L47.9571281,14.8945857 Z M54.7104975,123.35399 C54.6618976,119.953896 51.6215575,117.202733 47.9504246,117.237961 C44.2672256,117.27288 41.2774964,120.079665 41.3150356,123.46709 C41.3525748,126.866876 44.3902336,129.612785 48.0727622,129.576012 C51.7737253,129.53924 54.7587622,126.740798 54.7104975,123.35399 L54.7104975,123.35399 Z" id="Mobile"></path>
                    </g>
                </g>
            </g>
        </g>
    </g>
</svg>