<?xml version="1.0" encoding="UTF-8"?>
<svg width="183px" height="138px" viewBox="0 0 183 138" version="1.1" xmlns="http://www.w3.org/2000/svg" xmlns:xlink="http://www.w3.org/1999/xlink">
    <!-- Generator: Sketch 41 (35326) - http://www.bohemiancoding.com/sketch -->
    <title>website</title>
    <desc>Created with Sketch.</desc>
    <defs></defs>
    <g id="Page-1" stroke="none" stroke-width="1" fill="none" fill-rule="evenodd">
        <g id="portfolio" transform="translate(-868.000000, -1400.000000)">
            <g id="what-design" transform="translate(0.000000, 1079.000000)">
                <g id="website" transform="translate(848.000000, 321.000000)">
                    <g transform="translate(20.000000, 0.000000)">
                        <path d="M183,11.2325581 L183,126.767442 C182.149211,133.405884 178.404132,137.149535 171.763158,138 L11.2368421,138 C4.59586842,137.149535 0.850789474,133.405884 0,126.767442 L0,11.2325581 C0.850789474,4.59411628 4.59586842,0.850465116 11.2368421,0 L171.763158,0 C178.404132,0.850465116 182.149211,4.59411628 183,11.2325581" id="Fill-1" fill="#FFFFFF"></path>
                        <path d="M92.4034934,7.00799997 C116.156886,7.00799997 139.910279,6.98396451 163.663672,7.01921652 C173.96488,7.03524016 176.965123,10.0172395 176.974744,20.2980066 C177.008419,53.1016016 177.008419,85.9067989 176.974744,118.710394 C176.963519,128.955909 173.932809,131.974763 163.641222,131.97957 C115.866644,132.00681 68.092065,132.00681 20.3174865,131.97957 C10.0275032,131.97316 7.03367456,128.971933 7.02405326,118.686358 C6.99198225,85.8827635 6.99198225,53.0775662 7.02405326,20.2739712 C7.03367456,9.99320402 10.0146748,7.03524016 20.3415397,7.01921652 C44.3611219,6.98396451 68.3823077,7.00799997 92.4034934,7.00799997" id="Fill-2" fill="#FEFEFE"></path>
                        <path d="M167,35.736 L14.019257,35.736 C14.012838,35.158 14.006419,34.578 14,34 L166.987162,34 C166.991976,34.578 166.995186,35.158 167,35.736" id="Fill-3" fill="#3B96D2"></path>
                        <path d="M29,20.2088436 C28.9579036,22.9762336 27.5088155,24.8237764 24.7272139,24.9885954 C21.9342788,25.1549841 20.1484193,23.4895271 20.0091773,20.7252766 C19.8731735,18.0081172 21.2477834,16.1637138 24.2010088,16.0098827 C27.1267096,15.8560516 28.6114177,17.508951 29,20.2088436" id="Fill-4" fill="#429AD4"></path>
                        <path d="M43,20.1985374 C42.9627645,22.964275 41.5202943,24.814902 38.7373467,24.9875644 C35.9382098,25.1617964 34.1557635,23.4932498 34.0100594,20.7337909 C33.8675932,18.019852 35.2372114,16.173934 38.1933849,16.0106896 C41.1236555,15.8505845 42.6049801,17.5002951 43,20.1985374" id="Fill-5" fill="#429AD4"></path>
                        <path d="M52.3900676,25 C49.6343287,24.5064197 47.9018247,23.0489609 48.0043108,20.2939137 C48.1051702,17.5900871 49.6912655,15.9091203 52.6324555,16.0038008 C55.5492441,16.0984813 57.0507476,17.822908 56.9986911,20.5515688 C56.9466347,23.3330024 55.1360459,24.6616336 52.3900676,25" id="Fill-6" fill="#429AD4"></path>
                        <path d="M59.1633329,76.82 C59.1633329,79.36012 57.5800229,81.42 55.6275802,81.42 L18.8557527,81.42 C16.90331,81.42 15.32,79.36012 15.32,76.82 L15.32,54.74 C15.32,52.19988 16.90331,50.14 18.8557527,50.14 L55.6275802,50.14 C57.5800229,50.14 59.1633329,52.19988 59.1633329,54.74 L59.1633329,76.82" id="Fill-9-Copy" fill="#3C9FEE"></path>
                        <path d="M59.1633329,119.6 C59.1633329,122.14012 57.5800229,124.2 55.6275802,124.2 L18.8557527,124.2 C16.90331,124.2 15.32,122.14012 15.32,119.6 L15.32,97.52 C15.32,94.97988 16.90331,92.92 18.8557527,92.92 L55.6275802,92.92 C57.5800229,92.92 59.1633329,94.97988 59.1633329,97.52 L59.1633329,119.6" id="Fill-9-Copy-4" fill="#3C9FEE"></path>
                        <path d="M113.736906,76.82 C113.736906,79.36012 112.153596,81.42 110.201154,81.42 L73.4293262,81.42 C71.4768836,81.42 69.8935736,79.36012 69.8935736,76.82 L69.8935736,54.74 C69.8935736,52.19988 71.4768836,50.14 73.4293262,50.14 L110.201154,50.14 C112.153596,50.14 113.736906,52.19988 113.736906,54.74 L113.736906,76.82" id="Fill-9-Copy-2" fill="#3C9FEE"></path>
                        <path d="M113.736906,119.6 C113.736906,122.14012 112.153596,124.2 110.201154,124.2 L73.4293262,124.2 C71.4768836,124.2 69.8935736,122.14012 69.8935736,119.6 L69.8935736,97.52 C69.8935736,94.97988 71.4768836,92.92 73.4293262,92.92 L110.201154,92.92 C112.153596,92.92 113.736906,94.97988 113.736906,97.52 L113.736906,119.6" id="Fill-9-Copy-5" fill="#3C9FEE"></path>
                        <path d="M168.31048,77.28 C168.31048,79.82012 166.72717,81.88 164.774727,81.88 L128.0029,81.88 C126.050457,81.88 124.467147,79.82012 124.467147,77.28 L124.467147,55.2 C124.467147,52.65988 126.050457,50.6 128.0029,50.6 L164.774727,50.6 C166.72717,50.6 168.31048,52.65988 168.31048,55.2 L168.31048,77.28" id="Fill-9-Copy-3" fill="#3C9FEE"></path>
                        <path d="M168.31048,120.06 C168.31048,122.60012 166.72717,124.66 164.774727,124.66 L128.0029,124.66 C126.050457,124.66 124.467147,122.60012 124.467147,120.06 L124.467147,97.98 C124.467147,95.43988 126.050457,93.38 128.0029,93.38 L164.774727,93.38 C166.72717,93.38 168.31048,95.43988 168.31048,97.98 L168.31048,120.06" id="Fill-9-Copy-6" fill="#2196F3"></path>
                    </g>
                </g>
            </g>
        </g>
    </g>
</svg>